<?xml version="1.0" encoding="utf-8"?>
<!-- Generator: Adobe Illustrator 28.0.0, SVG Export Plug-In . SVG Version: 6.00 Build 0)  -->
<svg version="1.1" id="logo" xmlns="http://www.w3.org/2000/svg" xmlns:xlink="http://www.w3.org/1999/xlink" x="0px" y="0px"
	 viewBox="0 0 894.9 269.8" style="enable-background:new 0 0 894.9 269.8;" xml:space="preserve">
<style type="text/css">
	.st0{fill:#FFFFFF;}
</style>
<g>
	<g>
		<g>
			<rect x="196.4" y="166.9" class="st0" width="4.1" height="6.2"/>
			<rect x="186.4" y="154.3" class="st0" width="4.1" height="8.5"/>
			<rect x="196.4" y="154.3" class="st0" width="4.1" height="8.5"/>
			<rect x="186.4" y="147.5" class="st0" width="14.1" height="2.7"/>
			<rect x="186.4" y="177.2" class="st0" width="14.1" height="2.8"/>
			<rect x="186.4" y="166.9" class="st0" width="4.1" height="6.2"/>
			<rect x="196.4" y="122.2" class="st0" width="4.1" height="8.5"/>
			<rect x="186.4" y="115.3" class="st0" width="14.1" height="2.8"/>
			<path class="st0" d="M186.4,143.4h4.1v-6.5c0-1.1-0.9-2-2.1-2c-1.1,0-2,0.9-2,2V143.4z"/>
			<rect x="179.5" y="90.1" class="st0" width="21" height="2.7"/>
			<path class="st0" d="M198.4,134.8c-1.1,0-2,0.9-2,2v6.5h4.1v-6.5C200.5,135.7,199.6,134.8,198.4,134.8z"/>
			<rect x="186.4" y="122.2" class="st0" width="4.1" height="8.5"/>
			<path class="st0" d="M106.7,143.4h4.1v-6.5c0-1.1-0.9-2-2.1-2c-1.1,0-2,0.9-2,2V143.4z"/>
			<rect x="96.8" y="122.2" class="st0" width="4.1" height="8.5"/>
			<path class="st0" d="M160.6,76.2v1.4h0v0.5h2.7v-1.9c0-2.2-1.4-4-3.4-4.6V49.9h-2.7v24.2h1.4C159.7,74.1,160.6,75.1,160.6,76.2z"
				/>
			<rect x="126.6" y="122.2" class="st0" width="4.1" height="8.5"/>
			<path class="st0" d="M96.8,143.4h4.1v-6.5c0-1.1-0.9-2-2.1-2c-1.1,0-2,0.9-2,2V143.4z"/>
			<rect x="96.8" y="166.9" class="st0" width="4.1" height="6.2"/>
			<path class="st0" d="M128.7,134.8c-1.1,0-2.1,0.9-2.1,2v6.5h4.1v-6.5C130.7,135.7,129.8,134.8,128.7,134.8z"/>
			<rect x="116.7" y="122.2" class="st0" width="4.1" height="8.5"/>
			<rect x="106.7" y="122.2" class="st0" width="4.1" height="8.5"/>
			<path class="st0" d="M116.7,143.4h4.1v-6.5c0-1.1-0.9-2-2-2c-1.1,0-2,0.9-2,2V143.4z"/>
			<polygon class="st0" points="92.6,122.2 89.9,122.2 89.9,179.9 130.7,179.9 130.7,177.2 92.6,177.2 92.6,150.2 130.7,150.2 
				130.7,147.5 92.6,147.5 			"/>
			<rect x="96.8" y="154.3" class="st0" width="4.1" height="8.5"/>
			<polygon class="st0" points="148.1,84.6 169.1,84.6 172.4,96.9 175.2,96.9 171.2,81.8 146,81.8 141.9,96.9 144.8,96.9 			"/>
			<rect x="126.6" y="154.3" class="st0" width="4.1" height="8.5"/>
			<path class="st0" d="M145.3,160.5v22h2.7v-22c0-3.4-2.8-6.1-6.2-6.1h-0.1v2.7c0.1,0,0,0,0.1,0C143.8,157,145.3,158.6,145.3,160.5
				z"/>
			<rect x="126.6" y="166.9" class="st0" width="4.1" height="6.2"/>
			<rect x="106.7" y="166.9" class="st0" width="4.1" height="6.2"/>
			<rect x="106.7" y="154.3" class="st0" width="4.1" height="8.5"/>
			<rect x="116.7" y="166.9" class="st0" width="4.1" height="6.2"/>
			<rect x="116.7" y="154.3" class="st0" width="4.1" height="8.5"/>
			<path class="st0" d="M168.9,143.4h4.1v-6.5c0-1.1-0.9-2-2.1-2c-1.1,0-2,0.9-2,2V143.4z"/>
			<polygon class="st0" points="99.6,92.8 137.6,92.8 137.6,90.1 97.5,90.1 89.9,118.1 130.7,118.1 130.7,115.3 93.5,115.3 			"/>
			<polygon class="st0" points="179.5,181.5 182.3,179.9 182.3,102.4 179.5,102.4 			"/>
			<path class="st0" d="M169.1,160.5v22h2.7v-22c0-1.9,1.5-3.4,3.4-3.4c0.1,0,0,0,0.1,0v-2.7h-0.1
				C171.9,154.3,169.1,157.1,169.1,160.5z"/>
			<path class="st0" d="M163.4,139.6c0-2.6-2.1-4.8-4.8-4.8c-2.6,0-4.8,2.1-4.8,4.8v7.9h-12v2.7h33.7v-2.7h-12V139.6z M160.6,147.5
				h-4.1v-7.9c0-1.1,0.9-2,2-2c1.1,0,2.1,0.9,2.1,2V147.5z"/>
			<polygon class="st0" points="168.2,102.5 158.6,96.9 158.5,96.9 149,102.4 149,107.1 141.7,107.1 141.7,109.9 151.7,109.9 
				151.7,104 158.5,100.1 165.5,104 165.5,109.9 175.4,109.9 175.4,107.1 168.2,107.1 			"/>
			<path class="st0" d="M144.1,143.4h4.1v-6.5c0-1.1-0.9-2-2-2c-1.1,0-2.1,0.9-2.1,2V143.4z"/>
			<path class="st0" d="M164.8,182.5v-22c0-3.4-2.8-6.1-6.2-6.1c-3.4,0-6.2,2.8-6.2,6.1v22h2.7v-22c0-1.9,1.5-3.4,3.4-3.4
				s3.5,1.5,3.5,3.4v22H164.8z"/>
			<polygon class="st0" points="134.9,179.9 137.6,181.5 137.6,102.4 134.9,102.4 			"/>
			<path class="st0" d="M161.3,107.5c0-1.5-1.2-2.8-2.8-2.8c-1.5,0-2.7,1.2-2.7,2.8c0,1.5,1.2,2.8,2.7,2.8
				C160.1,110.3,161.3,109.1,161.3,107.5z"/>
			<rect x="144.1" y="122.2" class="st0" width="4.1" height="8.5"/>
			<path class="st0" d="M158.7,112.6c-3,0-5.7,1-7.8,2.7h-9.1v2.8h10.1c1.7-1.7,4.2-2.8,6.8-2.8c2.6,0,5,1,6.8,2.8h10v-2.8h-8.9
				C164.3,113.6,161.6,112.6,158.7,112.6z"/>
			<path class="st0" d="M163.4,130.7v-6.5c0-2.6-2.1-4.8-4.8-4.8c-2.6,0-4.8,2.2-4.8,4.8v6.5h2.7v-6.5c0-1.1,0.9-2,2-2
				c1.1,0,2.1,0.9,2.1,2v6.5H163.4z"/>
			<rect x="168.9" y="122.2" class="st0" width="4.1" height="8.5"/>
			<polygon class="st0" points="145.3,186.6 141.7,184.5 141.7,187.7 144.6,189.3 172.5,189.3 175.4,187.7 175.4,184.5 171.8,186.6 
							"/>
		</g>
	</g>
	<rect x="227.2" y="49.9" class="st0" width="2.8" height="169.9"/>
	<g>
		<g>
			<path class="st0" d="M261.5,177.2c-2.3-2.3-3.5-5.7-3.5-10.1v-18.1h7v17.9c0,2.5,0.5,4.4,1.6,5.6c1.1,1.2,2.8,1.8,5.1,1.8
				c4.4,0,6.6-2.5,6.6-7.4v-17.9h7v18.1c0,4.4-1.2,7.8-3.5,10.1c-2.3,2.3-5.7,3.5-10.1,3.5C267.2,180.6,263.8,179.5,261.5,177.2z"/>
			<path class="st0" d="M291.8,157.6h6.1v3.2c0.7-1.2,1.6-2.2,2.8-2.9c1.2-0.7,2.5-1,3.9-1c2.7,0,4.8,0.8,6.2,2.4
				c1.4,1.6,2.1,3.9,2.1,7v13.7h-6.5v-12.8c0-3-1.3-4.6-3.8-4.6c-1.3,0-2.3,0.4-3.1,1.2c-0.8,0.8-1.2,1.9-1.2,3.3v12.9h-6.5V157.6z"
				/>
			<path class="st0" d="M318.9,147.9c0.8-0.8,1.7-1.2,2.7-1.2c1,0,1.9,0.4,2.7,1.2c0.8,0.8,1.1,1.7,1.1,2.7s-0.4,1.9-1.2,2.7
				c-0.8,0.8-1.7,1.2-2.7,1.2c-1.1,0-2-0.4-2.7-1.2c-0.8-0.8-1.2-1.7-1.2-2.7S318.1,148.6,318.9,147.9z M318.3,157.6h6.5v22.4h-6.5
				V157.6z"/>
			<path class="st0" d="M328.3,157.6h7.5l4.9,13.1l5-13.1h7.5l-10.6,22.9h-3.6L328.3,157.6z"/>
			<path class="st0" d="M357.9,177.4c-2.2-2.1-3.2-5-3.2-8.6c0-2.3,0.5-4.4,1.4-6.2c0.9-1.8,2.2-3.2,3.9-4.2c1.7-1,3.6-1.5,5.8-1.5
				c3.6,0,6.2,1,7.9,3.1c1.7,2.1,2.6,5,2.6,8.6v1.9h-14.9c0.2,1.6,0.8,2.8,1.8,3.5c1,0.7,2.4,1.1,4.3,1.1c2.7,0,5.2-0.5,7.5-1.4v5.5
				c-1.2,0.4-2.4,0.8-3.6,1c-1.2,0.2-2.5,0.3-4.1,0.3C363.2,180.6,360.1,179.5,357.9,177.4z M369.8,166.2c-0.2-1.4-0.6-2.4-1.2-3
				c-0.6-0.7-1.6-1-2.8-1c-2.3,0-3.7,1.3-4.3,4H369.8z"/>
			<path class="st0" d="M381.4,157.6h6.1v4c0.6-1.3,1.4-2.3,2.4-3c1-0.7,2.2-1.1,3.5-1.1c0.6,0,1.2,0.1,1.8,0.2v6.2
				c-0.7-0.2-1.5-0.3-2.3-0.3c-1.4,0-2.6,0.4-3.5,1.3c-0.9,0.8-1.4,2-1.4,3.6v11.6h-6.5V157.6z"/>
			<path class="st0" d="M402.1,180.1c-1.4-0.4-2.6-0.9-3.6-1.6v-5.6c1.1,0.8,2.3,1.5,3.5,1.9c1.2,0.4,2.4,0.6,3.6,0.6
				c2.1,0,3.1-0.6,3.1-1.7c0-0.6-0.2-1-0.6-1.4c-0.4-0.3-1.2-0.7-2.4-1.1l-2.3-0.8c-1.7-0.6-2.9-1.3-3.8-2.3c-0.9-1-1.3-2.3-1.3-3.9
				c0-1.4,0.3-2.6,1-3.7c0.7-1.1,1.7-2,3-2.7c1.3-0.6,2.9-1,4.8-1c2.5,0,4.6,0.6,6.6,1.7v5.8c-1-0.7-2.1-1.3-3.1-1.6
				c-1-0.4-2.1-0.6-3.3-0.6c-0.8,0-1.5,0.2-2,0.5c-0.5,0.3-0.8,0.8-0.8,1.4s0.2,1,0.5,1.3c0.3,0.3,0.9,0.5,1.6,0.8l2.5,0.7
				c2.2,0.6,3.7,1.5,4.7,2.6c0.9,1.1,1.4,2.5,1.4,4.3c0,2-0.8,3.7-2.3,5c-1.6,1.3-3.8,1.9-6.6,1.9
				C404.9,180.6,403.5,180.4,402.1,180.1z"/>
			<path class="st0" d="M420.3,147.9c0.8-0.8,1.7-1.2,2.7-1.2c1,0,1.9,0.4,2.7,1.2c0.8,0.8,1.1,1.7,1.1,2.7s-0.4,1.9-1.2,2.7
				c-0.8,0.8-1.7,1.2-2.7,1.2c-1.1,0-2-0.4-2.7-1.2c-0.8-0.8-1.2-1.7-1.2-2.7S419.5,148.6,420.3,147.9z M419.7,157.6h6.5v22.4h-6.5
				V157.6z"/>
			<path class="st0" d="M432.8,172.7v-10.1h-2.7v-5h2.7v-4.7l6.5-1.5v6.2h5.8v5h-5.8v9.1c0,2.2,0.9,3.3,2.7,3.3
				c0.6,0,1.1-0.1,1.6-0.2c0.5-0.1,1-0.3,1.6-0.5v5.5c-0.9,0.2-1.6,0.4-2.3,0.5c-0.7,0.1-1.4,0.2-2.2,0.2
				C435.4,180.6,432.8,178,432.8,172.7z"/>
			<path class="st0" d="M457.5,180.3l-10-22.7h7.4l5.6,15.4l5.5-15.4h7.3l-8.1,19c-1.2,3-2.4,5.4-3.4,7.3c-1,1.9-2.2,3.9-3.6,5.8
				h-6.9C453.8,186.9,455.8,183.7,457.5,180.3z"/>
			<path class="st0" d="M491.1,179.1c-1.8-1-3.3-2.4-4.2-4.2s-1.5-3.8-1.5-6.1c0-2.3,0.5-4.4,1.5-6.2c1-1.8,2.4-3.2,4.2-4.2
				c1.8-1,4-1.5,6.6-1.5c2.6,0,4.8,0.5,6.6,1.5s3.3,2.4,4.2,4.2s1.5,3.9,1.5,6.2c0,2.3-0.5,4.3-1.5,6.1s-2.4,3.1-4.2,4.1
				c-1.8,1-4,1.5-6.6,1.5C495.1,180.6,492.9,180.1,491.1,179.1z M493.6,173.5c1,1.1,2.4,1.7,4.1,1.7c1.7,0,3.1-0.6,4-1.7
				c1-1.1,1.5-2.6,1.5-4.6c0-2-0.5-3.6-1.5-4.8c-1-1.2-2.4-1.8-4.1-1.8c-1.7,0-3.1,0.6-4,1.7c-1,1.2-1.5,2.7-1.5,4.7
				C492.1,170.8,492.6,172.4,493.6,173.5z"/>
			<path class="st0" d="M518.2,149.7c1.5-1.5,3.7-2.2,6.5-2.2c1.6,0,2.8,0.2,3.6,0.6v5.4c-0.9-0.4-1.8-0.5-2.6-0.5
				c-1,0-1.8,0.3-2.4,0.8c-0.6,0.5-0.9,1.3-0.9,2.3v1.5h5.8v5h-5.8v17.3h-6.5v-17.3h-3.1v-5h3.1v-1.4
				C515.9,153.4,516.7,151.2,518.2,149.7z"/>
			<path class="st0" d="M542.4,148.9h7v25h13.3v6h-20.2V148.9z"/>
			<path class="st0" d="M565.4,183.6c0.6-2,1-4.6,1-7.7v-18.4h6.5v18c0,3.4-0.3,6.2-0.9,8.3c-0.6,2.1-1.6,4.1-2.9,5.8h-6.7
				C563.7,187.7,564.7,185.6,565.4,183.6z M566.9,147.9c0.8-0.8,1.7-1.2,2.7-1.2c1,0,1.9,0.4,2.7,1.2c0.8,0.8,1.1,1.7,1.1,2.7
				s-0.4,1.9-1.2,2.7c-0.8,0.8-1.7,1.2-2.7,1.2c-1.1,0-2-0.4-2.7-1.2c-0.8-0.8-1.2-1.7-1.2-2.7S566.1,148.6,566.9,147.9z"/>
			<path class="st0" d="M580.4,178.2c-1.4-1.6-2.1-3.9-2.1-7v-13.7h6.5v12.8c0,3,1.2,4.6,3.6,4.6c1.3,0,2.3-0.4,3-1.2
				c0.7-0.8,1.1-1.9,1.1-3.3v-12.9h6.5v22.4h-6.1v-3.1c-0.7,1.2-1.6,2.1-2.7,2.7s-2.4,1-3.8,1C583.8,180.6,581.8,179.8,580.4,178.2z
				"/>
			<path class="st0" d="M614.1,179.4c-1.3-0.8-2.3-2-3.1-3.5v4H605v-31.9h6.5v8.9l-0.3,4.1c0.8-1.3,1.8-2.3,3.1-3
				c1.3-0.7,2.7-1.1,4.3-1.1c1.9,0,3.6,0.4,5.2,1.3c1.6,0.9,2.8,2.2,3.7,4c0.9,1.8,1.4,4,1.4,6.6c0,2.6-0.5,4.8-1.4,6.6
				c-0.9,1.8-2.2,3.1-3.7,4c-1.6,0.9-3.3,1.3-5.2,1.3C616.9,180.6,615.4,180.2,614.1,179.4z M612.5,173.4c1,1.2,2.3,1.8,4,1.8
				c1.7,0,3-0.6,4-1.8s1.5-2.7,1.5-4.5c0-1.9-0.5-3.5-1.5-4.7c-1-1.2-2.3-1.8-4-1.8c-1.7,0-3,0.6-4,1.8c-1,1.2-1.5,2.8-1.5,4.7
				C611,170.7,611.5,172.2,612.5,173.4z"/>
			<path class="st0" d="M633.7,148.1h6.5v31.9h-6.5V148.1z"/>
			<path class="st0" d="M645.2,183.6c0.6-2,1-4.6,1-7.7v-18.4h6.5v18c0,3.4-0.3,6.2-0.9,8.3c-0.6,2.1-1.6,4.1-2.9,5.8h-6.7
				C643.6,187.7,644.6,185.6,645.2,183.6z M646.7,147.9c0.8-0.8,1.7-1.2,2.7-1.2c1,0,1.9,0.4,2.7,1.2c0.8,0.8,1.1,1.7,1.1,2.7
				s-0.4,1.9-1.2,2.7c-0.8,0.8-1.7,1.2-2.7,1.2c-1.1,0-2-0.4-2.7-1.2c-0.8-0.8-1.2-1.7-1.2-2.7S646,148.6,646.7,147.9z"/>
			<path class="st0" d="M659.6,178.7c-1.4-1.3-2.1-3-2.1-5.1c0-4,2.7-6.4,8.2-7c1.3-0.1,2.3-0.3,3-0.5c0.7-0.2,1.1-0.3,1.4-0.6
				c0.3-0.2,0.4-0.5,0.4-0.9c0-0.7-0.4-1.3-1.1-1.8c-0.7-0.5-1.8-0.7-3.2-0.7c-2.5,0-4.9,0.9-7.5,2.6v-5.5c1.1-0.7,2.3-1.3,3.7-1.8
				c1.4-0.5,2.9-0.7,4.5-0.7c3.2,0,5.7,0.8,7.3,2.4c1.6,1.6,2.4,3.9,2.4,6.8v13.8h-5.3l-0.2-2.8c-0.6,1.1-1.5,2-2.6,2.6
				c-1.1,0.6-2.3,0.9-3.8,0.9C662.7,180.6,660.9,180,659.6,178.7z M664.2,175.1c0.5,0.5,1.2,0.8,2.1,0.8c1.2,0,2.2-0.4,3-1.3
				c0.8-0.8,1.2-2.2,1.2-4v-1c-0.8,0.4-2,0.7-3.5,0.9c-2.4,0.2-3.6,1.1-3.6,2.8C663.5,174,663.7,174.6,664.2,175.1z"/>
			<path class="st0" d="M682.3,157.6h6.1v3.2c0.7-1.2,1.6-2.2,2.8-2.9c1.2-0.7,2.5-1,3.9-1c2.7,0,4.8,0.8,6.2,2.4
				c1.4,1.6,2.1,3.9,2.1,7v13.7h-6.5v-12.8c0-3-1.3-4.6-3.8-4.6c-1.3,0-2.3,0.4-3.1,1.2c-0.8,0.8-1.2,1.9-1.2,3.3v12.9h-6.5V157.6z"
				/>
			<path class="st0" d="M709.7,178.7c-1.4-1.3-2.1-3-2.1-5.1c0-4,2.7-6.4,8.2-7c1.3-0.1,2.3-0.3,3-0.5c0.7-0.2,1.1-0.3,1.4-0.6
				c0.2-0.2,0.4-0.5,0.4-0.9c0-0.7-0.4-1.3-1.1-1.8c-0.7-0.5-1.8-0.7-3.2-0.7c-2.5,0-4.9,0.9-7.5,2.6v-5.5c1.1-0.7,2.3-1.3,3.7-1.8
				c1.4-0.5,2.9-0.7,4.5-0.7c3.2,0,5.7,0.8,7.3,2.4s2.4,3.9,2.4,6.8v13.8h-5.3l-0.2-2.8c-0.6,1.1-1.5,2-2.6,2.6
				c-1.1,0.6-2.3,0.9-3.8,0.9C712.9,180.6,711.1,180,709.7,178.7z M714.4,175.1c0.5,0.5,1.2,0.8,2.1,0.8c1.2,0,2.2-0.4,3-1.3
				c0.8-0.8,1.2-2.2,1.2-4v-1c-0.8,0.4-2,0.7-3.5,0.9c-2.4,0.2-3.6,1.1-3.6,2.8C713.7,174,713.9,174.6,714.4,175.1z"/>
		</g>
	</g>
	<g>
		<polygon class="st0" points="470.9,115.2 455.8,115.2 470.5,93.9 470.5,90.1 447.1,90.1 447.1,95.9 461.3,95.9 446.6,117.2 
			446.6,121.1 470.9,121.1 		"/>
		<path class="st0" d="M285.2,108v-18h-7v17.8c0,4.2-1.9,7.4-6.7,7.4c-4.2,0-6.7-2.2-6.7-7.4V90.1h-7v18c0,8.4,4.3,13.6,13.6,13.6
			C280,121.7,285.2,117.5,285.2,108z"/>
		<polygon class="st0" points="406.2,115.2 391.9,115.2 391.9,107.9 404.6,107.9 404.6,102 391.9,102 391.9,95.9 406,95.9 406,90.1 
			384.9,90.1 384.9,121.1 406.2,121.1 		"/>
		<polygon class="st0" points="322.6,121.1 322.6,90.1 315.8,90.1 315.8,108 298.7,90.1 294.9,90.1 294.9,121.1 301.7,121.1 
			301.7,102.8 318.7,121.1 		"/>
		<path class="st0" d="M422.1,110.4h2.5l4.5,5.9c3.1,4.2,5.4,5.6,9.9,5.4v-6.2c-1.9,0-3.3-1.4-5.4-4.3l-1.2-1.7
			c3.6-1.6,6.5-4.7,6.5-9.3c0-6.2-5-10.1-12.9-10.1h-10.7v31h6.8V110.4z M422.1,95.9h3.7c3.9,0,5.7,1.6,5.7,4.3
			c0,2.9-1.9,4.5-5.7,4.5h-3.7V95.9z"/>
		<rect x="332.5" y="90.1" class="st0" width="7" height="31"/>
		<polygon class="st0" points="362.3,110.4 354.1,90.1 346,90.1 359.8,121.1 364.6,121.1 378.4,90.1 370.5,90.1 		"/>
		<g>
			<path class="st0" d="M489.1,90.1h5.3l13.5,31h-8l-2-5.4h-12.4l-2,5.4h-8L489.1,90.1z M495.7,110l-4-10.7l-4.1,10.7H495.7z"/>
		</g>
		<g>
			<path class="st0" d="M585.8,95.9h8.4v22.6c0,3.6-0.3,8.5-2.3,11.8h7.3c1.7-3.4,2-7.4,2-12.2V90.1h-15.3V95.9z"/>
			<polygon class="st0" points="572.8,90.1 565.8,90.1 565.8,121.1 585.8,121.1 585.8,115.2 572.8,115.2 			"/>
			<polygon class="st0" points="533.7,110.4 525.6,90.1 517.6,90.1 531.2,121.1 536,121.1 549.7,90.1 541.8,90.1 			"/>
			<polygon class="st0" points="686.5,90.1 679.6,90.1 679.6,121.1 699.6,121.1 699.6,115.2 686.5,115.2 			"/>
			<polygon class="st0" points="781.3,108 764.2,90.1 760.3,90.1 760.3,121.1 767.1,121.1 767.1,102.8 784.2,121.1 788.1,121.1 
				788.1,90.1 781.3,90.1 			"/>
			<rect x="798" y="90.1" class="st0" width="7" height="31"/>
			<path class="st0" d="M631,107.9c0,4.2-1.9,7.4-6.7,7.4c-4.2,0-6.7-2.2-6.7-7.4V90.1h-7v18c0,8.4,4.3,13.6,13.6,13.6
				c8.4,0,13.6-4.2,13.6-13.6v-18h-7V107.9z"/>
			<path class="st0" d="M699.6,95.9h8.4v22.6c0,3.6-0.3,8.5-2.3,11.8h7.3c1.7-3.4,2-7.4,2-12.2V90.1h-15.3V95.9z"/>
			<path class="st0" d="M665.6,104.4c2.2-1.1,3.7-3.1,3.7-6.4c0-5.3-3.9-7.9-10.7-7.9h-11v31h12.2c7,0,11.3-2.3,11.3-8.7
				C671.2,108.4,669.4,105.5,665.6,104.4z M654.8,95.6h2.8c3.1,0,4.7,1.1,4.7,3.4c0,2.5-1.6,3.6-4.7,3.6h-2.8V95.6z M658.9,115.3
				h-4.2V108h4.2c3.4,0,5,1.2,5,3.7C663.9,114.1,662.4,115.3,658.9,115.3z"/>
			<g>
				<path class="st0" d="M735,90.1h5.3l13.5,31h-8l-2-5.4h-12.4l-2,5.4h-8L735,90.1z M741.7,110l-4-10.7l-4.1,10.7H741.7z"/>
			</g>
		</g>
	</g>
</g>
</svg>
